<svg width="72" height="72" viewBox="0 0 72 72" fill="none" xmlns="http://www.w3.org/2000/svg">
<rect width="72" height="72" rx="8" fill="#18A0FB"/>
<path d="M37.3333 38.7493V49.3333H25.3333C25.3332 47.8199 25.6551 46.3238 26.2777 44.9443C26.9003 43.5649 27.8093 42.3337 28.9443 41.3326C30.0793 40.3316 31.4144 39.5835 32.8608 39.1381C34.3072 38.6926 35.8318 38.5601 37.3333 38.7493ZM36 37.3333C31.58 37.3333 28 33.7533 28 29.3333C28 24.9133 31.58 21.3333 36 21.3333C40.42 21.3333 44 24.9133 44 29.3333C44 33.7533 40.42 37.3333 36 37.3333ZM43.724 46.552L48.4373 41.8386L50.324 43.724L43.724 50.324L39.0093 45.6093L40.896 43.724L43.7227 46.552H43.724Z" fill="white"/>
</svg>
