<svg width="72" height="72" viewBox="0 0 72 72" fill="none" xmlns="http://www.w3.org/2000/svg">
<rect width="72" height="72" rx="8" fill="#7B61FF"/>
<path d="M38.6667 39.0026V49.3333H25.3333C25.3329 47.7052 25.7052 46.0985 26.4217 44.6365C27.1382 43.1745 28.1799 41.8959 29.467 40.8987C30.754 39.9015 32.2522 39.2122 33.8469 38.8835C35.4415 38.5549 37.0902 38.5956 38.6667 39.0026ZM36 37.3333C31.58 37.3333 28 33.7533 28 29.3333C28 24.9133 31.58 21.3333 36 21.3333C40.42 21.3333 44 24.9133 44 29.3333C44 33.7533 40.42 37.3333 36 37.3333ZM45.3333 42.1146L48.1613 39.2853L50.048 41.172L47.2187 44L50.048 46.828L48.1613 48.7146L45.3333 45.8853L42.5053 48.7146L40.6187 46.828L43.448 44L40.6187 41.172L42.5053 39.2853L45.3333 42.1146Z" fill="white"/>
</svg>
