<svg width="72" height="72" viewBox="0 0 72 72" fill="none" xmlns="http://www.w3.org/2000/svg">
<rect width="72" height="72" rx="8" fill="#1BC47D"/>
<path d="M28.5093 27.9573C30.6343 26.2547 33.2771 25.329 36 25.3333C38.8333 25.3333 41.4373 26.3146 43.4907 27.9573L45.428 26.02L47.3133 27.9053L45.376 29.8426C46.7863 31.6082 47.6694 33.736 47.9237 35.9813C48.1781 38.2266 47.7933 40.498 46.8137 42.5343C45.8341 44.5706 44.2995 46.2888 42.3864 47.4914C40.4734 48.694 38.2596 49.332 36 49.332C33.7404 49.332 31.5266 48.694 29.6136 47.4914C27.7005 46.2888 26.1659 44.5706 25.1863 42.5343C24.2067 40.498 23.8219 38.2266 24.0763 35.9813C24.3306 33.736 25.2137 31.6082 26.624 29.8426L24.6867 27.9066L26.572 26.0213L28.5093 27.9586V27.9573ZM37.3333 36V29.9933L30.6667 38.6666H34.6667V44.6666L41.3333 36H37.3333ZM30.6667 21.3333H41.3333V24H30.6667V21.3333Z" fill="white"/>
</svg>
