<svg width="72" height="72" viewBox="0 0 72 72" fill="none" xmlns="http://www.w3.org/2000/svg">
<rect width="72" height="72" rx="8" fill="#F531B3"/>
<path d="M24 45.3333V25.3333C24 24.9797 24.1405 24.6406 24.3905 24.3905C24.6406 24.1405 24.9797 24 25.3333 24H37.3333C37.687 24 38.0261 24.1405 38.2761 24.3905C38.5262 24.6406 38.6667 24.9797 38.6667 25.3333V36H41.3333C42.0406 36 42.7189 36.281 43.219 36.781C43.7191 37.2811 44 37.9594 44 38.6667V44C44 44.3536 44.1405 44.6928 44.3905 44.9428C44.6406 45.1929 44.9797 45.3333 45.3333 45.3333C45.687 45.3333 46.0261 45.1929 46.2761 44.9428C46.5262 44.6928 46.6667 44.3536 46.6667 44V34.6667H44C43.6464 34.6667 43.3072 34.5262 43.0572 34.2761C42.8071 34.0261 42.6667 33.687 42.6667 33.3333V28.552L40.4573 26.3427L42.3427 24.4573L48.9427 31.0573C49.0667 31.181 49.165 31.3279 49.2321 31.4897C49.2991 31.6515 49.3335 31.8249 49.3333 32V44C49.3333 45.0609 48.9119 46.0783 48.1618 46.8284C47.4116 47.5786 46.3942 48 45.3333 48C44.2725 48 43.2551 47.5786 42.5049 46.8284C41.7548 46.0783 41.3333 45.0609 41.3333 44V38.6667H38.6667V45.3333H40V48H22.6667V45.3333H24ZM26.6667 26.6667V34.6667H36V26.6667H26.6667Z" fill="white"/>
</svg>
