<svg width="30" height="30" viewBox="0 0 30 30" fill="none" xmlns="http://www.w3.org/2000/svg">
<rect width="30" height="30" rx="15" fill="#47C95E"/>
<path d="M16.8232 9.82322C16.8701 9.77634 16.9337 9.75 17 9.75C17.0663 9.75 17.1299 9.77634 17.1768 9.82322L22.1768 14.8232C22.2744 14.9209 22.2744 15.0791 22.1768 15.1768L17.1768 20.1768C17.0791 20.2744 16.9209 20.2744 16.8232 20.1768L15.9616 19.3152C15.9148 19.2683 15.8884 19.2047 15.8884 19.1384C15.8884 19.0721 15.9148 19.0085 15.9616 18.9616L19.0641 15.8592H7.43079C6.95625 15.8592 6.57156 15.4745 6.57156 15C6.57156 14.5255 6.95625 14.1408 7.43079 14.1408H19.0641L15.9616 11.0384C15.864 10.9407 15.864 10.7824 15.9616 10.6848L16.8232 9.82322Z" fill="white" stroke="white" stroke-width="0.5" stroke-linecap="round" stroke-linejoin="round"/>
</svg>
