<svg width="37" height="36" viewBox="0 0 37 36" fill="none" xmlns="http://www.w3.org/2000/svg">
<rect width="36" height="36" transform="translate(0.640015)" fill="#47C95E"/>
<path fill-rule="evenodd" clip-rule="evenodd" d="M19.8399 19.1942C21.5178 18.6012 22.72 17.0009 22.72 15.1198C22.72 12.734 20.7859 10.7999 18.4 10.7999C16.0141 10.7999 14.08 12.734 14.08 15.1198C14.08 17.0009 15.2822 18.6011 16.9601 19.1942V23.7598C16.9601 24.5551 17.6047 25.2 18.4 25.2C19.1953 25.2 19.8399 24.5551 19.8399 23.7598V19.1942ZM18.4 13.6799C17.6047 13.6799 16.9601 14.3245 16.9601 15.1198C16.9601 15.9151 17.6047 16.56 18.4 16.56C19.1953 16.56 19.8399 15.9151 19.8399 15.1198C19.8399 14.3245 19.1953 13.6799 18.4 13.6799Z" fill="#F7F5F2"/>
<path fill-rule="evenodd" clip-rule="evenodd" d="M17.8947 3.6917C18.2206 3.56948 18.5798 3.56948 18.9058 3.6917L30.4259 8.01168C30.9878 8.22238 31.3603 8.75972 31.3603 9.36001V18.0802C31.3603 22.9891 28.5868 27.4768 24.1959 29.6719L19.0441 32.248C18.6388 32.4507 18.1615 32.4507 17.7563 32.248L12.6044 29.6719C8.21375 27.4768 5.44001 22.9889 5.44001 18.0802V9.36001C5.44001 8.75974 5.81247 8.22237 6.37442 8.01168L17.8947 3.6917ZM8.32039 10.358V18.0803C8.32039 21.8981 10.4775 25.3885 13.8922 27.0961L18.4003 29.3501L22.9083 27.0961C26.323 25.3886 28.4801 21.8981 28.4801 18.0803V10.358L18.4004 6.57807L8.32039 10.358Z" fill="#F7F5F2"/>
</svg>
