<svg width="92" height="92" viewBox="0 0 92 92" fill="none" xmlns="http://www.w3.org/2000/svg">
<g clip-path="url(#clip0_3_2531)">
<path d="M92.184 -7.49799H-4.41602V98.578H92.184V-7.49799Z" fill="url(#paint0_linear_3_2531)"/>
<path d="M71.7666 45.9825H65.4821C63.6053 45.9825 62.0846 47.5042 62.0846 49.3801V58.501C62.0846 60.3778 60.5629 61.8986 58.687 61.8986H33.6842C31.8074 61.8986 30.2866 63.4202 30.2866 65.2961V71.5806C30.2866 73.4574 31.8083 74.9782 33.6842 74.9782H60.1342C62.011 74.9782 63.5115 73.4565 63.5115 71.5806V66.539C63.5115 64.6622 65.0332 63.3301 66.909 63.3301H71.7666C73.6434 63.3301 75.1642 61.8084 75.1642 59.9325V49.3396C75.1642 47.4628 73.6425 45.9816 71.7666 45.9816V45.9825Z" fill="#121312"/>
<path d="M30.2847 33.4981C30.2847 31.6213 31.8064 30.1006 33.6823 30.1006H58.6695C60.5463 30.1006 62.067 28.5789 62.067 26.703V20.4185C62.067 18.5417 60.5453 17.0209 58.6695 17.0209H32.2342C30.3574 17.0209 28.8366 18.5426 28.8366 20.4185V25.2605C28.8366 27.1373 27.315 28.658 25.4391 28.658H20.6026C18.7258 28.658 17.2051 30.1797 17.2051 32.0556V42.6595C17.2051 44.5363 18.7323 45.9807 20.6091 45.9807H26.8936C28.7704 45.9807 30.2912 44.459 30.2912 42.5831L30.2856 33.499L30.2847 33.4981Z" fill="#121312"/>
<path d="M43.2262 39.377H49.2632C51.2302 39.377 52.8273 40.9741 52.8273 42.941V48.9781C52.8273 50.945 51.2302 52.5422 49.2632 52.5422H43.2262C41.2592 52.5422 39.6621 50.945 39.6621 48.9781V42.941C39.6621 40.9741 41.2592 39.377 43.2262 39.377Z" fill="#121312"/>
</g>
<defs>
<linearGradient id="paint0_linear_3_2531" x1="-1.37449" y1="84.1469" x2="106.633" y2="-7.98651" gradientUnits="userSpaceOnUse">
<stop stop-color="#12FF80"/>
<stop offset="0.13" stop-color="#15FD85"/>
<stop offset="0.29" stop-color="#1FF896"/>
<stop offset="0.49" stop-color="#30F1B2"/>
<stop offset="0.69" stop-color="#48E7D9"/>
<stop offset="0.87" stop-color="#5FDDFF"/>
</linearGradient>
<clipPath id="clip0_3_2531">
<rect width="92" height="92" rx="46" fill="white"/>
</clipPath>
</defs>
</svg>
