<svg width="36" height="36" viewBox="0 0 36 36" fill="none" xmlns="http://www.w3.org/2000/svg">
<path d="M10.0275 12.9833C14.4306 8.67224 21.5694 8.67224 25.9726 12.9833L26.5025 13.5021C26.7226 13.7177 26.7226 14.0671 26.5025 14.2827L24.6897 16.0575C24.5797 16.1653 24.4012 16.1653 24.2911 16.0575L23.5619 15.3435C20.4901 12.3361 15.5099 12.3361 12.4382 15.3435L11.6572 16.1082C11.5471 16.2159 11.3687 16.2159 11.2586 16.1082L9.44582 14.3333C9.22567 14.1178 9.22567 13.7683 9.44582 13.5527L10.0275 12.9833ZM29.7215 16.6538L31.3349 18.2334C31.555 18.449 31.555 18.7985 31.3349 19.014L24.0601 26.1367C23.84 26.3523 23.483 26.3523 23.2629 26.1367C23.2629 26.1367 23.2629 26.1367 23.2629 26.1367L18.0997 21.0815C18.0447 21.0276 17.9554 21.0276 17.9004 21.0815H17.9004L12.7373 26.1367C12.5172 26.3523 12.1602 26.3523 11.9401 26.1367C11.9401 26.1367 11.9401 26.1367 11.9401 26.1367L4.66512 19.0139C4.44496 18.7984 4.44496 18.4489 4.66512 18.2334L6.27848 16.6537C6.49864 16.4382 6.85558 16.4382 7.07573 16.6537L12.239 21.709C12.294 21.7629 12.3833 21.7629 12.4383 21.709C12.4383 21.709 12.4383 21.709 12.4383 21.709L17.6013 16.6537C17.8214 16.4382 18.1784 16.4382 18.3985 16.6537C18.3985 16.6537 18.3986 16.6537 18.3986 16.6537L23.5618 21.709C23.6168 21.7629 23.7061 21.7629 23.7611 21.709L28.9243 16.6538C29.1444 16.4383 29.5014 16.4383 29.7215 16.6538Z" fill="#3B99FC"/>
</svg>
